<svg
  width="1000"
  height="136"
  viewBox="0 0 1000 136"
  fill="none"
  xmlns="http://www.w3.org/2000/svg"
>
  <path
    d="M528.984 68.0022H597.348L614.633 84.7951H654.447V87.3336H756.293V82.2566H864.271L890.029 101.002H948.682C949.459 108.552 954.781 123.614 969.852 123.458C984.923 123.302 989.597 108.422 990.05 101.002"
    stroke="#00497C"
    stroke-width="3"></path>
  <path
    d="M948.682 101.384C949.459 94.0995 954.78 79.5686 969.852 79.7193C984.923 79.87 989.597 94.2251 990.05 101.384"
    stroke="#00497C"
    stroke-width="3"></path>
  <path
    fill-rule="evenodd"
    clip-rule="evenodd"
    d="M969.657 117.209C978.56 117.209 985.777 109.953 985.777 101.002C985.777 92.0513 978.56 84.7952 969.657 84.7952C960.755 84.7952 953.538 92.0513 953.538 101.002C953.538 109.953 960.755 117.209 969.657 117.209ZM969.484 115.002C977.492 115.002 983.984 108.734 983.984 101.002C983.984 93.2703 977.492 87.0023 969.484 87.0023C961.476 87.0023 954.984 93.2703 954.984 101.002C954.984 108.734 961.476 115.002 969.484 115.002Z"
    fill="#00497C"></path>
  <path
    d="M969.463 134.002V70.3455C979.697 70.3455 999.922 76.4656 998.95 100.946C997.979 125.427 978.888 133.184 969.463 134.002Z"
    fill="#5CB3F1"
    fill-opacity="0.25"
    stroke="#00497C"
    stroke-width="2"></path>
  <path
    d="M528.998 68.0005H452.198L432.779 51.2076L388.052 51.2076V48.6691L273.638 48.6691V53.7461L152.334 53.7461L123.398 35.0005L57.5066 35.0005C56.6339 27.4502 50.6557 12.3887 33.7248 12.5449C16.7939 12.7011 11.543 27.5804 11.0339 35.0005"
    stroke="#005491"
    stroke-width="3"></path>
  <path
    d="M57.5083 34.6184C56.6356 41.9027 50.6574 56.4336 33.7265 56.2829C16.7956 56.1322 11.5447 41.7771 11.0356 34.6184"
    stroke="#005491"
    stroke-width="3"></path>
  <path
    fill-rule="evenodd"
    clip-rule="evenodd"
    d="M33.9441 18.7936C23.9428 18.7936 15.835 26.0497 15.835 35.0007C15.835 43.9516 23.9428 51.2078 33.9441 51.2078C43.9455 51.2078 52.0532 43.9516 52.0532 35.0007C52.0532 26.0497 43.9455 18.7936 33.9441 18.7936ZM34.134 21.001C25.1376 21.001 17.8446 27.269 17.8446 35.001C17.8446 42.733 25.1376 49.001 34.134 49.001C43.1303 49.001 50.4233 42.733 50.4233 35.001C50.4233 27.269 43.1303 21.001 34.134 21.001Z"
    fill="#005491"></path>
  <path
    d="M34.1636 1.99994L34.1636 65.6567C22.667 65.6567 -0.0533295 59.5366 1.03787 35.0561C2.12907 10.5757 23.5763 2.81847 34.1636 1.99994Z"
    fill="#5CB3F1"
    fill-opacity="0.25"
    stroke="#005491"
    stroke-width="2"></path>
</svg>